<svg viewBox="0 0 759 816"
  xmlns="http://www.w3.org/2000/svg">
  <path d="M167.05 0h11.87c6.01 2.89 12.76 1.03 19.12 1.92 33.14 4.3 64.46 17.85 92.48 35.68 29.26 18.56 55.31 41.7 79.38 66.5 3.15 3.49 6.23 7.07 9.82 10.14 8.49-8.35 16.01-17.64 25.01-25.47 32.95-31.66 70.35-60.02 113.53-76.08 13.92-5.11 28.36-8.92 43.09-10.77 6.58-.79 13.5.8 19.78-1.92h10.9c4.22 1.55 8.75 1.55 13.15 2.18 33.87 4 66.42 18.2 92.47 40.2 30.07 25.11 51.21 60.84 58.13 99.45 1.2 5.72 1.3 11.67 3.22 17.23v26.98c-1.82 5.23-2.01 10.81-3 16.22-4.3 26.84-15.59 51.81-26.71 76.38-4.98 11.34-10.74 22.36-14.81 34.07-50.21 106.98-101.53 213.45-154.91 318.89-10.68 21.05-21.67 41.95-32 63.18-14.5 29.08-30.19 58.28-53.03 81.76-18.24 18.87-42.33 32.14-68.31 36.39-6.39 1.28-13.03 1.13-19.28 3.07h-15.88c-4.09-1.5-8.49-1.43-12.75-2.03-20.32-2.33-40.37-9.21-56.87-21.48-14.25-10.27-25.61-23.95-35.51-38.33-11.12-16.4-20.5-33.91-29.35-51.62-4.42-8.25-7.94-16.99-13.14-24.82-8.44-15.69-16.36-31.66-24.44-47.54C146.25 526.07 95.61 420.9 45.95 315.29c-9.27-21.25-20.02-41.86-28.28-63.54-6.54-17.52-12.62-35.37-15.12-53.97-.76-4.96-.9-10.04-2.55-14.82V162c1.76-5.03 1.85-10.4 2.67-15.61C8.47 108.26 28 72.47 56.62 46.67c26.79-24.36 61.23-40.22 97.2-44.49 4.43-.63 8.98-.63 13.23-2.18m-26.63 56.94c-19.63 6.4-38.01 17.18-52.51 31.97-17.68 17.18-29.8 40.02-34 64.32-3.35 21.75-1.68 44.48 6.41 65.05 6.66 16.57 13.64 33 20.85 49.33 3.49 7.81 6.49 15.84 10.69 23.3 57.88 125.89 119.94 249.8 182.78 373.26 7.98 15.29 15.24 31 24.48 45.59 6.01 9.54 11.06 19.93 19.3 27.83 10.41 10.6 23.68 18.28 37.9 22.49 19.47 5.49 40.91 4.2 59.43-4.04 14.96-7.59 28.29-18.8 37.26-33.08 11.45-18.06 20.78-37.34 30.79-56.2 3.81-6.5 6.26-13.66 9.95-20.22 64.95-127.86 129-256.25 188.07-386.95 8.82-21.2 19.84-41.97 23.15-64.96 3.33-20.86 1.5-42.58-5.59-62.49-11.32-32.07-36.57-59.08-68.26-71.67-19.36-7.84-40.75-9.92-61.37-7.15-15.61 1.33-30.78 5.83-45.13 11.98-20.47 8.58-38.77 21.44-55.97 35.29-19.68 16.03-37.85 33.86-54.84 52.69 2.17 3.97 5.32 7.26 7.97 10.9 31.93 42.07 61.36 86.79 80.3 136.35 12.69 32.49 18.91 68.21 13.03 102.87-4.79 30.41-19.15 59.73-42.29 80.35-13.94 12.45-30.69 21.7-48.63 26.97-15.26 4.7-31.28 6.38-47.19 6.48-17.43-.55-34.97-3.03-51.34-9.25-38.84-14.24-69.06-48.79-79.41-88.68-6.72-25.17-6.02-51.8-.88-77.18 7.13-35.19 21.83-68.39 39.31-99.59 17.76-31.22 38.37-60.81 60.98-88.7-4.13-5.32-9.01-9.97-13.65-14.82-13.15-13.55-26.65-26.81-41.41-38.61-24.18-19.55-51.24-36.64-81.56-44.63-22.4-5.94-46.5-5.98-68.62 1.2m233.44 144.98c-19.29 25.01-37.15 51.24-51.73 79.31-10.59 20.45-19.38 41.97-24.54 64.47-4.69 18.74-7.13 38.63-2.47 57.62 3.34 14.93 11.96 28.19 22.4 39.16 14.3 15.05 35.03 22.76 55.54 23.42 6.41.92 12.83-.1 19.25-.42 17.39-1.75 34.67-8.55 47.25-20.93 13.41-12.9 23.64-29.84 25.97-48.53 3.35-21.02-1.53-42.09-6.82-62.34-2.71-9.59-6.01-19.01-9.87-28.19-16.97-40.3-42.06-76.54-69.01-110.73-2.24 2.17-4.12 4.66-5.97 7.16z"/>
</svg>
